HIERARCHY
ROOT hip
{
  OFFSET 0 0 0
  CHANNELS 6 Xposition Yposition Zposition Zrotation Yrotation Xrotation
  JOINT abdomen
  {
    OFFSET 0 20.6881 -0.73152
    CHANNELS 3 Zrotation Xrotation Yrotation
    JOINT chest
    {
      OFFSET 0 11.7043 -0.48768
      CHANNELS 3 Zrotation Xrotation Yrotation
      JOINT neck
      {
        OFFSET 0 22.1894 -2.19456
        CHANNELS 3 Zrotation Xrotation Yrotation
        JOINT head
        {
          OFFSET -0.24384 7.07133 1.2192
          CHANNELS 3 Zrotation Xrotation Yrotation
          JOINT leftEye
          {
            OFFSET 4.14528 8.04674 8.04672
            CHANNELS 3 Zrotation Xrotation Yrotation
            End Site
            {
              OFFSET 1 0 0
            }
          }
          JOINT rightEye
          {
            OFFSET -3.6576 8.04674 8.04672
            CHANNELS 3 Zrotation Xrotation Yrotation
            End Site
            {
              OFFSET 1 0 0
            }
          }
        }
      }
      JOINT rCollar
      {
        OFFSET -2.68224 19.2634 -4.8768
        CHANNELS 3 Zrotation Xrotation Yrotation
        JOINT rShldr
        {
          OFFSET -8.77824 -1.95073 1.46304
          CHANNELS 3 Zrotation Xrotation Yrotation
          JOINT rForeArm
          {
            OFFSET -28.1742 -1.7115 0.48768
            CHANNELS 3 Zrotation Xrotation Yrotation
            JOINT rHand
            {
              OFFSET -22.5879 0.773209 7.07136
              CHANNELS 3 Zrotation Xrotation Yrotation
              JOINT rThumb1
              {
                OFFSET -1.2192 -0.487915 3.41376
                CHANNELS 3 Zrotation Xrotation Yrotation
                JOINT rThumb2
                {
                  OFFSET -3.37035 -0.52449 3.41376
                  CHANNELS 3 Zrotation Xrotation Yrotation
                  End Site
                  {
                    OFFSET -1.78271 -1.18214 1.43049
                  }
                }
              }
              JOINT rIndex1
              {
                OFFSET -7.75947 0.938293 5.60832
                CHANNELS 3 Zrotation Xrotation Yrotation
                JOINT rIndex2
                {
                  OFFSET -2.54057 -0.884171 1.56538
                  CHANNELS 3 Zrotation Xrotation Yrotation
                  End Site
                  {
                    OFFSET -1.62519 -0.234802 1.16502
                  }
                }
              }
              JOINT rMid1
              {
                OFFSET -8.24714 1.18213 3.41376
                CHANNELS 3 Zrotation Xrotation Yrotation
                JOINT rMid2
                {
                  OFFSET -3.10165 -0.590103 1.0647
                  CHANNELS 3 Zrotation Xrotation Yrotation
                  End Site
                  {
                    OFFSET -2.48547 -0.328903 0.83742
                  }
                }
              }
              JOINT rRing1
              {
                OFFSET -8.82822 0.546677 1.51678
                CHANNELS 3 Zrotation Xrotation Yrotation
                JOINT rRing2
                {
                  OFFSET -2.60934 -0.819778 -0.0198488
                  CHANNELS 3 Zrotation Xrotation Yrotation
                  End Site
                  {
                    OFFSET -2.33842 -0.294052 0.168128
                  }
                }
              }
              JOINT rPinky1
              {
                OFFSET -8.27202 -0.0477905 -0.4584
                CHANNELS 3 Zrotation Xrotation Yrotation
                JOINT rPinky2
                {
                  OFFSET -1.82734 -0.647385 -0.700984
                  CHANNELS 3 Zrotation Xrotation Yrotation
                  End Site
                  {
                    OFFSET -1.69225 -0.51767 -0.607171
                  }
                }
              }
            }
          }
        }
      }
      JOINT lCollar
      {
        OFFSET 2.68224 19.2634 -4.8768
        CHANNELS 3 Zrotation Xrotation Yrotation
        JOINT lShldr
        {
          OFFSET 8.77824 -1.95073 1.46304
          CHANNELS 3 Zrotation Xrotation Yrotation
          JOINT lForeArm
          {
            OFFSET 28.1742 -1.7115 0.48768
            CHANNELS 3 Zrotation Xrotation Yrotation
            JOINT lHand
            {
              OFFSET 22.5879 0.773209 7.07136
              CHANNELS 3 Zrotation Xrotation Yrotation
              JOINT lThumb1
              {
                OFFSET 1.2192 -0.487915 3.41376
                CHANNELS 3 Zrotation Xrotation Yrotation
                JOINT lThumb2
                {
                  OFFSET 3.37035 -0.52449 3.41376
                  CHANNELS 3 Zrotation Xrotation Yrotation
                  End Site
                  {
                    OFFSET 1.78271 -1.18214 1.43049
                  }
                }
              }
              JOINT lIndex1
              {
                OFFSET 7.75947 0.938293 5.60832
                CHANNELS 3 Zrotation Xrotation Yrotation
                JOINT lIndex2
                {
                  OFFSET 2.54057 -0.884171 1.56538
                  CHANNELS 3 Zrotation Xrotation Yrotation
                  End Site
                  {
                    OFFSET 1.62519 -0.234802 1.16502
                  }
                }
              }
              JOINT lMid1
              {
                OFFSET 8.24714 1.18213 3.41376
                CHANNELS 3 Zrotation Xrotation Yrotation
                JOINT lMid2
                {
                  OFFSET 3.10165 -0.590103 1.0647
                  CHANNELS 3 Zrotation Xrotation Yrotation
                  End Site
                  {
                    OFFSET 2.48547 -0.328903 0.83742
                  }
                }
              }
              JOINT lRing1
              {
                OFFSET 8.82822 0.546677 1.51678
                CHANNELS 3 Zrotation Xrotation Yrotation
                JOINT lRing2
                {
                  OFFSET 2.60934 -0.819778 -0.0198488
                  CHANNELS 3 Zrotation Xrotation Yrotation
                  End Site
                  {
                    OFFSET 2.33842 -0.294052 0.168128
                  }
                }
              }
              JOINT lPinky1
              {
                OFFSET 8.27202 -0.0477905 -0.4584
                CHANNELS 3 Zrotation Xrotation Yrotation
                JOINT lPinky2
                {
                  OFFSET 1.82734 -0.647385 -0.700984
                  CHANNELS 3 Zrotation Xrotation Yrotation
                  End Site
                  {
                    OFFSET 1.69225 -0.51767 -0.607171
                  }
                }
              }
            }
          }
        }
      }
    }
  }
  JOINT rButtock
  {
    OFFSET -8.77824 4.35084 1.2192
    CHANNELS 3 Zrotation Xrotation Yrotation
    JOINT rThigh
    {
      OFFSET 0 -1.70687 -2.19456
      CHANNELS 3 Zrotation Xrotation Yrotation
      JOINT rShin
      {
        OFFSET 0 -36.8199 0.73152
        CHANNELS 3 Zrotation Xrotation Yrotation
        JOINT rFoot
        {
          OFFSET 0.73152 -45.1104 -5.12064
          CHANNELS 3 Zrotation Xrotation Yrotation
          End Site
          {
            OFFSET -1.1221 -3.69964 12.103
          }
        }
      }
    }
  }
  JOINT lButtock
  {
    OFFSET 8.77824 4.35084 1.2192
    CHANNELS 3 Zrotation Xrotation Yrotation
    JOINT lThigh
    {
      OFFSET 0 -1.70687 -2.19456
      CHANNELS 3 Zrotation Xrotation Yrotation
      JOINT lShin
      {
        OFFSET 0 -36.8199 0.73152
        CHANNELS 3 Zrotation Xrotation Yrotation
        JOINT lFoot
        {
          OFFSET -0.73152 -45.1104 -5.12064
          CHANNELS 3 Zrotation Xrotation Yrotation
          End Site
          {
            OFFSET 1.1221 -3.69964 12.103
          }
        }
      }
    }
  }
}
MOTION
Frames:	9
Frame Time:	0.00833333
6.80722 79.2228 7.15376 -426.375 92.8713 -417.895 -0.838869 37.5902 1.00994 0.888848 -8.9146 0.676155 -2.40365 -11.6481 0.828577 -3.69373 4.05058 3.10439 -0.0 0.0 0.0 -0.0 0.0 0.0 -6.12109e-14 -1.4617e-12 -7.62984e-14 63.4853 26.0374 19.3282 -20.7375 -13.9685 40.5018 -0.449537 -18.7101 -2.7282 1.6539e-09 3.09499e-09 -2.54596e-09 2.90416e-09 5.36096e-09 -4.3857e-09 1.65391e-09 3.09499e-09 -2.54597e-09 7.73091 5.47488 0.417314 1.6539e-09 3.09499e-09 -2.54596e-09 2.90554 0.965183 0.102902 1.65391e-09 3.09499e-09 -2.54596e-09 10.2786 0.731801 0.0259123 1.6539e-09 3.09499e-09 -2.54595e-09 2.22167 -0.733487 -0.20892 -6.12413e-14 -1.4617e-12 -7.63749e-14 -62.9259 34.2577 -24.7303 18.107 -10.8023 -34.2605 0.420047 -18.1129 2.63486 7.4301e-10 2.38292e-09 6.35833e-10 1.26096e-09 4.13744e-09 1.1158e-09 7.43007e-10 2.38292e-09 6.35836e-10 -7.73091 5.47488 -0.417314 7.43014e-10 2.38292e-09 6.35819e-10 -2.90554 0.965183 -0.102902 7.43001e-10 2.38292e-09 6.35827e-10 -10.2786 0.731801 -0.0259123 7.43016e-10 2.38292e-09 6.35814e-10 -2.22167 -0.733487 0.20892 -2.03217e-16 0.0 -3.88251e-19 -16.2757 -38.9523 -14.5269 -0.517396 49.2449 1.16854 -1.46718 -14.5916 -4.28534 2.03217e-16 0.0 3.88251e-19 11.7325 -34.6191 11.1347 0.565812 48.8582 -0.965704 -0.226226 -17.6117 -0.730553
6.80228 79.2162 7.1595 -426.576 92.7684 -418.039 -0.810807 37.4866 0.974085 0.949552 -8.9771 0.669542 -2.47567 -11.3486 0.824503 -3.59909 3.7167 3.10191 -0.0 0.0 0.0 -0.0 0.0 0.0 -4.18604e-14 -9.80467e-13 -5.45912e-14 63.4886 26.117 19.2203 -20.7258 -13.9529 40.4724 -0.447986 -18.6793 -2.72337 1.28911e-09 3.03521e-09 -2.40407e-09 2.27245e-09 5.25873e-09 -4.14484e-09 1.28911e-09 3.03521e-09 -2.40408e-09 7.73091 5.47488 0.417314 1.28911e-09 3.03521e-09 -2.40408e-09 2.90554 0.965183 0.102902 1.28911e-09 3.03521e-09 -2.40407e-09 10.2786 0.731801 0.0259123 1.2891e-09 3.03521e-09 -2.40407e-09 2.22167 -0.733487 -0.20892 -4.19549e-14 -9.80468e-13 -5.47124e-14 -63.3227 34.1642 -24.474 18.0639 -10.7557 -34.1635 0.416117 -18.0316 2.6222 4.25287e-10 2.4142e-09 5.4596e-10 7.13512e-10 4.19004e-09 9.55492e-10 4.25283e-10 2.41419e-09 5.45962e-10 -7.73091 5.47488 -0.417314 4.2529e-10 2.4142e-09 5.4595e-10 -2.90554 0.965183 -0.102902 4.25281e-10 2.4142e-09 5.45955e-10 -10.2786 0.731801 -0.0259123 4.25294e-10 2.4142e-09 5.45944e-10 -2.22167 -0.733487 0.20892 -2.03217e-16 0.0 -3.88251e-19 -16.2556 -38.9659 -14.5058 -0.517346 49.2413 1.1695 -1.47119 -14.5967 -4.29703 2.03217e-16 0.0 3.88251e-19 11.7675 -34.6632 11.1673 0.56777 48.914 -0.967021 -0.255017 -17.6543 -0.799265
6.79216 79.2067 7.16382 -427.363 92.6901 -418.745 -0.786558 37.3817 0.950363 1.0101 -9.04314 0.665682 -2.55258 -11.0392 0.819245 -3.50366 3.34422 3.09719 -0.0 0.0 0.0 -0.0 0.0 0.0 -1.58215e-14 -3.25761e-13 -2.80139e-14 63.4926 26.1963 19.1077 -20.7176 -13.942 40.4518 -0.446698 -18.6536 -2.71935 8.15311e-10 2.80594e-09 -2.12084e-09 1.44993e-09 4.86299e-09 -3.66076e-09 8.1532e-10 2.80594e-09 -2.12084e-09 7.73091 5.47488 0.417314 8.15316e-10 2.80594e-09 -2.12085e-09 2.90554 0.965183 0.102902 8.15324e-10 2.80594e-09 -2.12084e-09 10.2786 0.731801 0.0259123 8.1531e-10 2.80594e-09 -2.12085e-09 2.22167 -0.733487 -0.20892 -1.59758e-14 -3.2576e-13 -2.81812e-14 -63.7119 34.0769 -24.2257 18.0176 -10.7057 -34.0595 0.412003 -17.9458 2.60886 3.37083e-11 2.31792e-09 4.21653e-10 3.96806e-11 4.021e-09 7.34347e-10 3.37045e-11 2.31792e-09 4.21653e-10 -7.73091 5.47488 -0.417314 3.37089e-11 2.31792e-09 4.21647e-10 -2.90554 0.965183 -0.102902 3.37059e-11 2.31792e-09 4.21649e-10 -10.2786 0.731801 -0.0259123 3.37163e-11 2.31792e-09 4.2164e-10 -2.22167 -0.733487 0.20892 -2.03217e-16 0.0 -3.88251e-19 -16.2288 -38.9858 -14.4754 -0.517358 49.2378 1.17052 -1.47521 -14.6031 -4.30916 2.03217e-16 0.0 3.88251e-19 11.8073 -34.7109 11.2058 0.569804 48.9723 -0.96836 -0.282814 -17.6959 -0.865326
6.80383 79.2108 7.13674 -426.046 92.7654 -417.467 -0.784856 37.2969 0.974966 1.04884 -9.08795 0.672026 -2.61102 -10.7922 0.816951 -3.43971 2.9453 3.09072 -0.0 0.0 0.0 -0.0 0.0 0.0 9.63039e-15 2.84273e-13 -3.8763e-15 63.5043 26.2478 19.0178 -20.7148 -13.9382 40.4447 -0.445884 -18.6374 -2.7168 4.827e-10 2.58802e-09 -1.89914e-09 8.72224e-10 4.48603e-09 -3.28125e-09 4.8271e-10 2.58802e-09 -1.89914e-09 7.73091 5.47488 0.417314 4.82706e-10 2.58802e-09 -1.89915e-09 2.90554 0.965183 0.102902 4.82715e-10 2.58802e-09 -1.89915e-09 10.2786 0.731801 0.0259123 4.82698e-10 2.58802e-09 -1.89915e-09 2.22167 -0.733487 -0.20892 9.45355e-15 2.84275e-13 -4.07509e-15 -64.0157 34.018 -24.0483 17.9731 -10.6578 -33.9599 0.408022 -17.8623 2.5959 -3.32812e-10 2.20663e-09 3.3225e-10 -5.91506e-10 3.8259e-09 5.74244e-10 -3.32816e-10 2.20664e-09 3.3225e-10 -7.73091 5.47488 -0.417314 -3.32812e-10 2.20664e-09 3.32247e-10 -2.90554 0.965183 -0.102902 -3.32813e-10 2.20664e-09 3.32248e-10 -10.2786 0.731801 -0.0259123 -3.32804e-10 2.20664e-09 3.32241e-10 -2.22167 -0.733487 0.20892 -2.03217e-16 0.0 -3.88251e-19 -16.1873 -39.0173 -14.4217 -0.51739 49.2338 1.17107 -1.47603 -14.6002 -4.31456 2.03217e-16 0.0 3.88251e-19 11.854 -34.7438 11.2619 0.571338 49.0176 -0.969399 -0.297048 -17.7334 -0.898006
6.80022 79.2037 7.15394 -430.918 92.6443 -422.283 -0.822109 37.2342 1.09686 1.05488 -9.10076 0.699614 -2.65453 -10.6298 0.810568 -3.41846 2.5012 3.06997 -0.0 0.0 0.0 -0.0 0.0 0.0 4.00657e-14 9.34391e-13 2.25376e-14 63.5232 26.2509 18.9561 -20.72 -13.9451 40.4576 -0.446069 -18.641 -2.71737 3.60357e-10 2.44693e-09 -1.82249e-09 6.60413e-10 4.24071e-09 -3.14991e-09 3.60366e-10 2.44692e-09 -1.8225e-09 7.73091 5.47488 0.417314 3.60362e-10 2.44692e-09 -1.8225e-09 2.90554 0.965183 0.102902 3.60372e-10 2.44693e-09 -1.8225e-09 10.2786 0.731801 0.0259123 3.60354e-10 2.44693e-09 -1.8225e-09 2.22167 -0.733487 -0.20892 3.99291e-14 9.34394e-13 2.23272e-14 -64.2045 34.0024 -23.9754 17.93 -10.6116 -33.8632 0.403548 -17.7683 2.5813 -7.60915e-10 2.13495e-09 3.05693e-10 -1.33058e-09 3.69881e-09 5.22715e-10 -7.6092e-10 2.13496e-09 3.05695e-10 -7.73091 5.47488 -0.417314 -7.60915e-10 2.13496e-09 3.0569e-10 -2.90554 0.965183 -0.102902 -7.60918e-10 2.13496e-09 3.05693e-10 -10.2786 0.731801 -0.0259123 -7.60909e-10 2.13496e-09 3.05688e-10 -2.22167 -0.733487 0.20892 -2.03217e-16 0.0 -3.88251e-19 -16.107 -39.083 -14.314 -0.517455 49.2282 1.17062 -1.47089 -14.5786 -4.30829 2.03217e-16 0.0 3.88251e-19 11.9287 -34.7612 11.3666 0.572297 49.0491 -0.97006 -0.290664 -17.7717 -0.879725
6.80224 79.2011 7.15239 -432.383 92.5765 -423.727 -0.88416 37.1831 1.28342 1.04147 -9.09617 0.741452 -2.6923 -10.5125 0.800595 -3.42219 2.01274 3.03901 -0.0 0.0 0.0 -0.0 0.0 0.0 7.68612e-14 1.6933e-12 5.29047e-14 63.546 26.2246 18.9086 -20.7314 -13.9604 40.4864 -0.44698 -18.6591 -2.72021 3.14064e-10 2.28046e-09 -1.77289e-09 5.80519e-10 3.9506e-09 -3.0643e-09 3.14072e-10 2.28046e-09 -1.77289e-09 7.73091 5.47488 0.417314 3.14068e-10 2.28046e-09 -1.77289e-09 2.90554 0.965183 0.102902 3.14077e-10 2.28046e-09 -1.77289e-09 10.2786 0.731801 0.0259123 3.14058e-10 2.28046e-09 -1.77289e-09 2.22167 -0.733487 -0.20892 7.68044e-14 1.6933e-12 5.26935e-14 -64.3235 34.0156 -23.9674 17.886 -10.5647 -33.7648 0.398669 -17.665 2.56529 -1.26568e-09 2.03465e-09 3.01851e-10 -2.2025e-09 3.52146e-09 5.09749e-10 -1.26569e-09 2.03466e-09 3.01856e-10 -7.73091 5.47488 -0.417314 -1.26568e-09 2.03465e-09 3.01846e-10 -2.90554 0.965183 -0.102902 -1.26569e-09 2.03466e-09 3.01855e-10 -10.2786 0.731801 -0.0259123 -1.26568e-09 2.03466e-09 3.0185e-10 -2.22167 -0.733487 0.20892 -2.03217e-16 0.0 -3.88251e-19 -15.9993 -39.1729 -14.1685 -0.517565 49.2217 1.16959 -1.46217 -14.5462 -4.29519 2.03217e-16 0.0 3.88251e-19 12.0236 -34.7714 11.5044 0.572959 49.0739 -0.970512 -0.271485 -17.8103 -0.829967
6.80801 79.2011 7.14043 -433.212 92.5509 -424.561 -0.94412 37.147 1.44858 1.0232 -9.08746 0.77795 -2.70961 -10.4199 0.802462 -3.43921 1.52148 3.02309 -0.0 0.0 0.0 -0.0 0.0 0.0 1.06451e-13 2.31876e-12 7.53561e-14 63.5762 26.2014 18.8737 -20.7445 -13.9778 40.5192 -0.447639 -18.6722 -2.72227 2.89041e-10 2.01795e-09 -1.65091e-09 5.35625e-10 3.49411e-09 -2.85318e-09 2.89048e-10 2.01795e-09 -1.65092e-09 7.73091 5.47488 0.417314 2.89043e-10 2.01795e-09 -1.65092e-09 2.90554 0.965183 0.102902 2.89053e-10 2.01795e-09 -1.65091e-09 10.2786 0.731801 0.0259123 2.89032e-10 2.01795e-09 -1.65091e-09 2.22167 -0.733487 -0.20892 1.06473e-13 2.31876e-12 7.51503e-14 -64.4069 34.0368 -23.9777 17.8443 -10.5202 -33.6716 0.394712 -17.5805 2.5522 -1.64086e-09 1.83404e-09 2.87953e-10 -2.84984e-09 3.17087e-09 4.80907e-10 -1.64087e-09 1.83404e-09 2.87961e-10 -7.73091 5.47488 -0.417314 -1.64086e-09 1.83404e-09 2.87947e-10 -2.90554 0.965183 -0.102902 -1.64087e-09 1.83404e-09 2.8796e-10 -10.2786 0.731801 -0.0259123 -1.64086e-09 1.83404e-09 2.87957e-10 -2.22167 -0.733487 0.20892 -2.03217e-16 0.0 -3.88251e-19 -15.909 -39.2437 -14.042 -0.517688 49.2162 1.16885 -1.45425 -14.5183 -4.28273 2.03217e-16 0.0 3.88251e-19 12.0965 -34.7696 11.6171 0.57328 49.0887 -0.970795 -0.249267 -17.8389 -0.773597
6.81446 79.202 7.13647 -434.513 92.5042 -425.879 -0.975418 37.1295 1.50644 1.0147 -9.08793 0.789521 -2.69184 -10.332 0.831585 -3.45692 1.06904 3.04737 -0.0 0.0 0.0 -0.0 0.0 0.0 1.15269e-13 2.56855e-12 7.8023e-14 63.6174 26.2138 18.8497 -20.7545 -13.9912 40.5444 -0.447059 -18.6608 -2.72047 2.30509e-10 1.58872e-09 -1.35716e-09 4.28814e-10 2.7496e-09 -2.34532e-09 2.30515e-10 1.58872e-09 -1.35717e-09 7.73091 5.47488 0.417314 2.3051e-10 1.58872e-09 -1.35716e-09 2.90554 0.965183 0.102902 2.3052e-10 1.58872e-09 -1.35716e-09 10.2786 0.731801 0.0259123 2.305e-10 1.58872e-09 -1.35716e-09 2.22167 -0.733487 -0.20892 1.15329e-13 2.56855e-12 7.78242e-14 -64.4891 34.045 -23.9596 17.8079 -10.4816 -33.5906 0.392956 -17.5427 2.54635 -1.68019e-09 1.46142e-09 2.3123e-10 -2.91517e-09 2.52409e-09 3.81745e-10 -1.6802e-09 1.46143e-09 2.31239e-10 -7.73091 5.47488 -0.417314 -1.68019e-09 1.46142e-09 2.31223e-10 -2.90554 0.965183 -0.102902 -1.68021e-09 1.46143e-09 2.31238e-10 -10.2786 0.731801 -0.0259123 -1.68019e-09 1.46143e-09 2.31236e-10 -2.22167 -0.733487 0.20892 -2.03217e-16 0.0 -3.88251e-19 -15.8817 -39.252 -13.9914 -0.517788 49.2138 1.16925 -1.4515 -14.5104 -4.2784 2.03217e-16 0.0 3.88251e-19 12.1053 -34.7512 11.6465 0.573217 49.0899 -0.97095 -0.233867 -17.8471 -0.73551
6.81765 79.2005 7.12741 -435.993 92.4731 -427.357 -0.960665 37.1445 1.39531 1.02052 -9.09926 0.761963 -2.62886 -10.2532 0.902327 -3.45766 0.671159 3.13624 -0.0 0.0 0.0 -0.0 0.0 0.0 8.84785e-14 2.25141e-12 4.11496e-14 63.6791 26.2784 18.8448 -20.7595 -13.998 40.5571 -0.444431 -18.6086 -2.71229 1.30391e-10 8.51875e-10 -7.61063e-10 2.43115e-10 1.47337e-09 -1.31491e-09 1.30396e-10 8.51877e-10 -7.61078e-10 7.73091 5.47488 0.417314 1.30392e-10 8.51875e-10 -7.61071e-10 2.90554 0.965183 0.102902 1.304e-10 8.51874e-10 -7.61067e-10 10.2786 0.731801 0.0259123 1.30384e-10 8.51875e-10 -7.61065e-10 2.22167 -0.733487 -0.20892 8.85109e-14 2.25141e-12 4.09609e-14 -64.5732 34.0303 -23.8969 17.7774 -10.4493 -33.5228 0.394369 -17.5731 2.55105 -1.15164e-09 7.71319e-10 9.72754e-11 -1.99624e-09 1.33017e-09 1.55344e-10 -1.15165e-09 7.71325e-10 9.72836e-11 -7.73091 5.47488 -0.417314 -1.15164e-09 7.71321e-10 9.72702e-11 -2.90554 0.965183 -0.102902 -1.15166e-09 7.71327e-10 9.72828e-11 -10.2786 0.731801 -0.0259123 -1.15164e-09 7.71327e-10 9.72806e-11 -2.22167 -0.733487 0.20892 -2.03217e-16 0.0 -3.88251e-19 -15.9556 -39.1562 -14.0627 -0.517817 49.2151 1.17185 -1.45704 -14.5327 -4.28755 2.03217e-16 0.0 3.88251e-19 12.0124 -34.7017 11.5457 0.572547 49.0697 -0.970872 -0.229177 -17.819 -0.726187
